<svg width="294" height="269" viewBox="0 0 294 269" fill="none" xmlns="http://www.w3.org/2000/svg">
<path d="M1.41084 -19.5992C12.4953 3.55603 9.5101 29.799 12.1252 54.6405C13.4065 66.8231 16.169 79.0191 22.7056 89.4864C30.184 101.46 41.9652 109.429 53.3354 117.213C65.1098 125.271 76.0372 134.062 85.4134 144.946C94.941 156.005 102.854 168.53 108.781 181.924C111.827 188.804 114.235 195.913 116.358 203.133C118.671 210.995 120.77 218.952 123.874 226.545C129.044 239.199 137.435 249.661 149.125 256.651C159.469 262.838 171.517 266.04 183.508 266.145C198.216 266.275 212.58 261.462 225.594 254.827C238.028 248.485 249.953 240.611 260.935 231.948C269.979 224.811 278.485 216.588 284.341 206.506C290.573 195.776 292.943 183.269 290.492 171.015C287.809 157.587 280.122 145.608 270.672 136.014C250.406 115.443 222.056 108.083 196.285 97.3524C183.849 92.1733 171.712 85.8842 161.173 77.3455C150.057 68.3383 141.595 57.1119 136.261 43.7261C133.279 36.2513 131.035 28.5054 128.198 20.9773C125.45 13.6836 121.986 6.72799 117.664 0.26107C109.3 -12.2537 98.4345 -22.8279 87.0276 -32.4677C81.4316 -37.1972 75.6765 -41.728 69.9111 -46.2426C68.6411 -47.2375 70.0183 -49.3642 71.2992 -48.3619C83.2532 -38.9999 95.1978 -29.4946 105.698 -18.4482C116.298 -7.29766 124.925 5.38672 130.377 19.894C133.285 27.6326 135.566 35.6 138.661 43.2672C141.501 50.2999 145.14 56.8884 149.883 62.7898C158.725 73.7892 170.415 82.0362 182.774 88.5102C208.082 101.766 237.076 107.333 260.503 124.348C281.222 139.399 298.305 164.963 292.467 191.797C287.225 215.882 265.938 231.984 246.747 244.782C233.966 253.306 220.405 260.999 205.581 265.187C193.001 268.741 179.903 269.394 167.164 266.317C155.521 263.508 144.529 257.714 135.954 249.206C125.103 238.44 120.184 224.08 116.001 209.646C113.763 201.927 111.539 194.223 108.502 186.779C105.647 179.785 102.254 173.018 98.3769 166.55C90.643 153.654 80.9229 141.883 69.5994 132.068C58.7997 122.706 46.1862 115.859 35.2893 106.642C30.128 102.275 25.4195 97.3765 21.7004 91.6792C18.3314 86.5172 15.825 80.8622 14.0237 74.9576C6.50353 50.3031 10.8841 23.8592 5.90391 -1.24031C4.68535 -7.38802 2.96084 -13.3744 0.371865 -19.0826C0.062662 -19.7665 1.08495 -20.281 1.41084 -19.5992Z" fill="#677489"/>
</svg>
