<svg width="47" height="30" viewBox="0 0 47 30" fill="none" xmlns="http://www.w3.org/2000/svg">
<path d="M11.8918 3.07208C6.95843 5.8256 1.2718 8.88025 0.254463 15.0787C-0.30287 18.475 1.09708 21.4932 3.70375 23.6121C6.81841 26.1414 10.8597 27.4054 14.7011 28.2697C19.1064 29.2609 23.6291 29.7295 28.1331 29.9064C30.2024 29.9874 32.2745 30.0037 34.3438 29.9415C36.1398 29.8875 37.9798 29.8416 39.7478 29.4891C42.4811 28.9463 45.1265 27.4243 45.9185 24.552C46.6998 21.7215 45.6238 18.6479 44.2864 16.1739C42.5091 12.8883 39.9424 10.0254 37.0891 7.66488C31.0144 2.63859 22.5585 -0.877941 14.7465 1.80266C13.7598 2.14161 12.8051 2.56702 11.8918 3.07208C11.1358 3.48936 11.7784 4.67369 12.5317 4.25776C19.4704 0.425245 27.6011 2.62507 33.8185 6.86946C36.8158 8.91536 39.5438 11.4893 41.6518 14.4724C43.2558 16.7424 44.7638 19.5014 44.8371 22.3629C45.0118 29.1947 35.9718 28.6478 31.3731 28.6276C27.1651 28.6073 22.9371 28.3318 18.7758 27.6742C14.8611 27.0557 10.8371 26.1563 7.28376 24.3224C4.64109 22.9598 2.01043 20.8734 1.52243 17.7256C0.743765 12.6871 4.8451 8.80599 8.69444 6.4495C9.95177 5.67976 11.2451 4.97483 12.5317 4.25776C13.2851 3.83777 12.6438 2.65345 11.8918 3.07208Z" fill="#E5E8ED"/>
</svg>
