<svg width="28" height="29" viewBox="0 0 28 29" fill="none" xmlns="http://www.w3.org/2000/svg">
<path d="M18.7086 26.7963C15.8762 24.1616 13.0426 21.5276 10.2102 18.893C8.75356 17.5383 7.29575 16.1842 5.84034 14.829C4.60217 13.6787 3.20539 12.5868 2.10896 11.2949C-0.668427 8.01631 0.533614 2.96834 4.24321 0.998469C6.14713 -0.012358 8.35988 0.103562 10.2498 1.07917C12.9987 2.49796 15.5265 4.42997 17.798 6.53318C22.0944 10.5099 26.102 15.8847 27.4195 21.7397C27.9278 24.0025 26.9363 26.2966 24.9851 27.4961C22.9253 28.7629 20.4709 28.3745 18.7086 26.7963C18.0686 26.2222 19.079 25.3395 19.7149 25.9081C21.0488 27.105 22.9761 27.2387 24.4611 26.2412C26.0385 25.1827 26.4954 23.3599 25.9979 21.5763C24.5534 16.391 21.2858 11.7754 17.4872 8.07932C15.5122 6.15786 13.3216 4.45979 10.9705 3.03634C9.19767 1.96101 7.32624 1.13799 5.28279 1.9962C1.88512 3.41966 0.769531 7.89369 3.3201 10.6356C4.52321 11.9314 5.91708 13.08 7.20974 14.2804C8.58672 15.5597 9.9613 16.8402 11.3383 18.1196C14.1309 20.7166 16.9217 23.3129 19.7149 25.9081C20.3451 26.4958 19.3347 27.3785 18.7086 26.7963Z" fill="#677489"/>
</svg>
