<svg width="195" height="199" viewBox="0 0 195 199" fill="none" xmlns="http://www.w3.org/2000/svg">
<path d="M1.10298 197.073C11.3234 176.929 21.6775 156.853 31.8563 136.684C42.0329 116.52 52.0562 96.2738 62.1272 76.055C66.4465 67.3835 70.9048 58.1422 78.333 51.7203C85.2097 45.7781 93.9737 43.6158 102.693 42.1975C111.249 40.807 119.689 39.4262 127.968 36.7466C136.464 33.996 144.659 30.3053 152.423 25.8673C160.342 21.3425 167.812 16.0152 174.721 10.0292C176.459 8.5227 178.165 6.97875 179.833 5.3939C181.064 4.225 182.196 2.94454 183.837 2.38289C186.244 1.56055 188.83 2.46338 190.565 4.25563C192.324 6.07277 193.059 8.7979 192.023 11.1776C191.223 13.0113 189.567 14.451 188.121 15.7541C186.311 17.3841 184.329 18.8297 182.293 20.1519C174.533 25.1946 165.735 28.1597 157.155 31.4023C141.578 37.2891 127.086 45.4487 113.966 55.799C100.709 66.2577 88.9381 78.5753 78.6253 91.9928C67.98 105.842 58.8354 120.863 51.0793 136.549C43.2907 152.304 36.8905 168.762 31.8478 185.625C30.6185 189.738 29.473 193.877 28.4079 198.037C28.065 199.375 30.1394 199.793 30.481 198.461C34.9525 181.001 40.8855 163.927 48.2644 147.507C55.5796 131.228 64.3088 115.561 74.6005 101.018C84.655 86.811 96.2088 73.6025 109.384 62.2866C122.109 51.3569 136.358 42.1719 151.817 35.749C160.373 32.1948 169.274 29.4956 177.552 25.2666C181.764 23.1152 185.811 20.5582 189.361 17.3962C191.93 15.11 194.552 12.528 194.56 8.82985C194.574 3.47043 189.147 -0.962508 183.991 0.188889C182.573 0.506238 181.289 1.23405 180.202 2.20132C178.462 3.75138 176.826 5.42497 175.087 6.98043C171.573 10.1211 167.897 13.079 164.091 15.8504C149.347 26.5816 132.494 34.483 114.657 38.1172C106.131 39.8543 97.3143 40.3734 89.051 43.2901C84.8173 44.7867 80.8033 46.9287 77.3632 49.8609C73.751 52.9399 70.7982 56.6646 68.2154 60.6515C65.4701 64.8872 63.1642 69.3946 60.9079 73.9126C58.3775 78.9802 55.8608 84.0562 53.3375 89.1306C48.2527 99.3546 43.1667 109.581 38.0818 119.805C27.8364 140.405 17.7549 161.09 7.67394 181.773C5.24549 186.756 2.90181 191.778 0.467574 196.757C0.264524 197.17 0.89385 197.484 1.10298 197.073Z" fill="#E5E8ED"/>
</svg>
