<svg width="39" height="45" viewBox="0 0 39 45" fill="none" xmlns="http://www.w3.org/2000/svg">
<path d="M38.1457 33.4473C38.5708 36.7342 39.1265 42.0452 35.8149 44.1301C33.2 45.7745 29.7178 44.2152 27.327 42.88C23.6512 40.8233 20.3832 37.9273 17.5065 34.8523C14.3557 31.4858 11.8488 27.6071 8.35363 24.5606C6.17882 22.6634 3.78633 21.0729 2.32223 18.4976C0.493126 15.2798 -0.291946 11.38 0.974533 7.81256C2.13361 4.54786 4.78811 1.94988 8.02335 0.831446C11.8112 -0.47469 15.5253 0.518617 18.7593 2.71603C27.8458 8.89041 34.834 18.5492 37.4042 29.3635C37.7255 30.7117 37.9682 32.0749 38.1457 33.4473C38.2553 34.3068 36.9499 34.5796 36.8385 33.7162C35.499 23.2877 29.861 13.6499 21.9868 6.88143C18.9306 4.25438 15.433 1.41981 11.2084 1.57826C8.02078 1.69723 5.00473 3.49035 3.25979 6.17675C1.31084 9.18027 1.31198 12.7654 2.62325 16.0217C3.14626 17.3217 3.8098 18.5531 4.73253 19.6069C5.53972 20.5278 6.49642 21.2891 7.44335 22.058C8.74751 23.1193 10.0208 24.2153 11.2093 25.4077C12.9194 27.1262 14.4023 29.0183 15.8966 30.925C18.3406 34.0407 21.1989 36.8752 24.3361 39.2723C26.7962 41.1483 29.9157 43.3723 33.1251 43.4602C36.3362 43.5486 37.0513 40.2092 37.096 37.571C37.1191 36.2801 37.0043 34.9943 36.8385 33.7162C36.7267 32.8584 38.0333 32.585 38.1457 33.4473Z" fill="#677489"/>
</svg>
