<svg width="218" height="244" viewBox="0 0 218 244" fill="none" xmlns="http://www.w3.org/2000/svg">
<path d="M1.52209 14.7829C10.9426 35.8492 26.7464 52.7595 42.5841 69.0343C50.5386 77.2098 58.5796 85.312 66.0856 93.916C73.5204 102.434 80.2555 111.481 86.0673 121.213C97.6868 140.673 106.092 161.841 116.411 181.993C126.281 201.271 138.439 220.854 156.638 233.116C164.722 238.56 174.76 242.861 184.658 241.398C195.411 239.805 202.638 231.189 207.083 221.739C209.386 216.841 211.098 211.672 212.534 206.451C214.036 200.987 215.36 195.428 215.827 189.763C216.767 178.347 213.207 167.636 205.892 158.934C198.735 150.424 189.099 144.215 179.155 139.565C169.856 135.216 159.973 132.358 150.37 128.799C141.194 125.4 132.065 121.444 124.099 115.628C120.139 112.739 116.482 109.394 113.35 105.597C109.694 101.163 106.845 96.1395 104.374 90.9504C99.1607 80.0032 95.4253 67.914 87.3162 58.6793C80.4398 50.8504 71.0361 46.199 61.7414 41.9999C52.9006 38.0067 43.881 34.2555 36.4766 27.7772C29.7954 21.9308 23.8574 14.2424 21.9794 5.32761C21.1189 1.2514 21.2744 -2.95628 22.56 -6.92323C23.0084 -8.30495 25.1254 -7.60045 24.6784 -6.21895C21.7654 2.7643 25.6806 12.0217 31.2183 19.0553C37.4384 26.9578 45.5863 32.1262 54.5402 36.3131C63.7609 40.6251 73.4455 44.3213 81.6463 50.5272C85.995 53.8164 89.7551 57.7639 92.7947 62.3217C96.133 67.3269 98.6744 72.7985 101.074 78.3105C105.831 89.2445 110.344 100.27 119.016 108.694C126.324 115.796 135.45 120.616 144.76 124.445C154.149 128.306 163.908 131.127 173.33 134.888C183.463 138.935 193.261 144.277 201.437 151.638C209.389 158.796 215.534 168.133 217.253 178.91C218.994 189.827 216.156 201.144 212.895 211.503C209.794 221.35 205.244 231.853 196.788 238.171C188.931 244.041 179.104 244.532 170.001 241.673C160.141 238.576 151.566 232.269 144.177 225.116C136.365 217.555 129.853 208.738 124.16 199.461C112.143 179.879 103.667 158.364 93.2808 137.904C88.0661 127.636 82.3663 117.596 75.5548 108.32C68.6962 98.9783 60.8958 90.3981 52.9091 82.0436C37.1586 65.5709 20.4184 49.6756 8.38873 30.0553C5.47052 25.297 2.87639 20.3454 0.652985 15.2148C0.402522 14.6403 1.26458 14.2059 1.52209 14.7829Z" fill="#677489"/>
</svg>
