<svg width="78" height="81" viewBox="0 0 78 81" fill="none" xmlns="http://www.w3.org/2000/svg">
<path d="M75.8909 69.7493C75.2585 73.2521 74.2202 77.4348 71.0138 79.442C67.4572 81.6656 63.1771 79.5007 59.7932 77.9779C52.0761 74.5042 45.0412 69.6972 38.7397 64.0213C32.3914 58.3022 26.54 51.7232 21.7483 44.6087C16.3289 36.5658 12.3542 27.6629 7.33076 19.3785C6.2904 17.6619 5.22946 15.996 3.93777 14.4642C2.99549 13.3467 1.99683 12.2663 1.2234 11.0179C0.599183 10.0119 0.176465 8.84694 0.306261 7.64194C0.473737 6.07371 1.48481 4.73644 2.58312 3.68254C5.22727 1.14741 9.18251 0.609978 12.6681 1.0252C14.321 1.22225 15.9881 1.61299 17.5119 2.30565C19.4041 3.16666 21.1321 4.39186 22.7931 5.63769C26.0762 8.09704 29.2093 10.6679 33.0419 12.2094C36.3579 13.5436 39.8708 14.2971 43.3765 14.903C50.241 16.0883 57.4178 16.7151 63.7271 19.932C79.4552 27.9522 79.0294 48.3876 76.8886 63.5363C76.5944 65.6113 76.2554 67.6824 75.8909 69.7493C75.7413 70.5944 74.4085 70.5258 74.5595 69.6711C75.9976 61.537 77.1204 53.1748 76.4894 44.8975C75.9082 37.2989 73.6379 29.467 67.7886 24.2985C62.5525 19.6722 55.6073 18.2491 48.9459 17.1663C42.3993 16.1016 35.5975 15.3048 29.6576 12.1043C25.9798 10.1219 22.9454 7.17637 19.4423 4.92448C16.4851 3.02429 13.169 2.05784 9.64411 2.27608C7.90475 2.3856 6.131 2.81506 4.64399 3.76108C3.35926 4.57818 1.94324 5.98061 1.65819 7.5594C1.20746 10.0717 3.93733 12.3432 5.33919 14.053C7.96179 17.2504 9.93168 21.0764 11.9204 24.6973C14.162 28.7782 16.2931 32.9227 18.6016 36.9668C22.8778 44.4612 28.0725 51.28 33.9944 57.5184C39.5219 63.3412 45.7019 68.5508 52.5694 72.6833C56.1006 74.8095 59.8066 76.6632 63.6512 78.1361C65.4519 78.8272 67.4645 79.4477 69.362 78.7599C71.1148 78.1254 72.2979 76.557 73.0546 74.8978C73.8045 73.2464 74.2382 71.4526 74.5595 69.6711C74.7115 68.8249 76.0449 68.8947 75.8909 69.7493Z" fill="#677489"/>
</svg>
