<svg width="259" height="257" viewBox="0 0 259 257" fill="none" xmlns="http://www.w3.org/2000/svg">
<path d="M1.7387 2.85009C11.0322 31.9719 21.047 63.096 43.4217 84.8598C54.4125 95.5509 67.664 103.591 77.9005 115.122C87.9422 126.431 95.1322 139.967 101.264 153.755C112.797 179.688 121.125 207.702 139.465 229.858C147.548 239.624 157.656 247.99 169.751 251.995C180.563 255.578 192.227 255.173 202.922 251.35C225.324 243.344 242.343 222.902 250.54 200.817C255.209 188.24 257.528 174.252 254.648 160.969C252.404 150.617 246.806 141.24 238.867 134.349C224.77 122.111 205.775 117.605 188.403 112.383C170.933 107.13 152.361 101.027 139.813 86.8675C135.935 82.489 132.906 77.491 130.442 72.1758C127.142 65.0575 124.598 57.6073 120.709 50.774C114.522 39.9071 105.871 30.7091 96.5467 22.55C77.8863 6.2184 56.0489 -6.75675 40.2252 -26.2292C36.4599 -30.864 33.1087 -35.8371 30.2847 -41.115C29.5382 -42.5137 31.7268 -43.6005 32.4752 -42.204C44.7343 -19.2732 66.6975 -4.53287 86.4899 11.0996C96.2651 18.8202 105.862 26.9635 113.819 36.6447C117.786 41.4738 121.329 46.6809 124.231 52.2363C128.005 59.4553 130.475 67.2824 134.23 74.5099C138.945 83.5845 146.07 90.8091 154.656 96.1626C162.75 101.21 171.726 104.604 180.741 107.537C198.553 113.33 217.742 117.123 233.666 127.564C241.325 132.587 247.795 139.274 252.106 147.455C258.417 159.433 259.246 173.37 256.78 186.526C252.269 210.581 237.843 233.368 217.354 246.581C207.867 252.699 196.882 256.572 185.573 256.67C173.542 256.776 161.959 252.364 152.317 245.211C130.497 229.02 118.938 202.439 108.985 177.863C103.047 163.198 97.2512 148.369 89.2765 134.684C85.3261 127.905 80.8288 121.44 75.5662 115.635C70.2719 109.793 64.1941 104.801 58.0642 99.8966C52.0981 95.1239 46.0812 90.3786 40.6992 84.9223C35.4434 79.5933 30.8683 73.6295 26.8364 67.3066C18.4361 54.1358 12.5281 39.5157 7.52897 24.7309C5.10356 17.5563 2.87285 10.3152 0.666128 3.06862C0.457128 2.38425 1.52453 2.17987 1.7387 2.85009Z" fill="#677489"/>
</svg>
