<svg width="23" height="26" viewBox="0 0 23 26" fill="none" xmlns="http://www.w3.org/2000/svg">
<path d="M21.9924 19.1373C22.2413 21.1272 22.4339 24.2177 20.3194 25.3209C18.5556 26.2402 16.4137 25.1051 14.9884 24.0373C12.5974 22.2488 11.1607 19.8513 9.59586 17.3602C7.95523 14.7484 5.69964 12.6224 3.63273 10.37C2.20927 8.81548 0.454261 6.89423 0.489965 4.62372C0.518521 2.83499 1.84466 1.00199 3.52201 0.442647C5.10326 -0.0855298 6.84466 0.400713 8.305 1.08073C10.341 2.028 12.138 3.43144 13.7709 4.96992C17.6439 8.62015 21.2739 13.6997 21.9924 19.1373C22.1054 19.9946 20.7987 20.268 20.6845 19.4049C20.1193 15.1212 17.6089 11.1847 14.8348 8.01054C13.4367 6.40939 11.886 4.93286 10.1488 3.71328C8.80328 2.76834 7.25579 1.85232 5.60712 1.62033C4.1926 1.4217 3.08644 1.9052 2.31196 3.1332C1.24262 4.83075 2.2249 6.5651 3.32001 7.95476C4.86776 9.91568 6.72708 11.6062 8.35369 13.4993C9.27028 14.562 10.1216 15.6808 10.862 16.8778C11.5885 18.0514 12.2319 19.2397 13.1 20.3188C14.4268 21.9661 16.4275 24.0681 18.6591 24.2839C21.1415 24.5244 20.8857 21.0007 20.6845 19.4049C20.5767 18.5462 21.8834 18.2729 21.9924 19.1373Z" fill="#677489"/>
</svg>
