<svg width="176" height="199" viewBox="0 0 176 199" fill="none" xmlns="http://www.w3.org/2000/svg">
<path d="M1.17652 214.246C11.0583 196.714 17.6055 177.599 24.3468 158.678C31.0721 139.8 38.2453 120.732 49.5431 104.096C59.7913 89.0072 73.3972 76.2358 89.2963 67.458C105.606 58.4528 124.341 54.7913 140.148 44.7596C147.569 40.0504 154.356 34.0114 159.239 26.6002C161.606 23.0115 163.489 19.1439 164.75 15.0169C165.445 12.7365 165.803 10.382 166.423 8.08193C167.014 5.89482 168.007 3.50932 170.229 2.60856C172.266 1.7816 173.765 2.7541 173.688 5.00209C173.617 7.10744 173.013 9.29422 172.534 11.3365C171.558 15.5048 170.251 19.5855 168.64 23.5468C165.405 31.4991 161.007 38.9584 155.611 45.5994C150.272 52.1711 143.978 57.9496 136.864 62.4943C129.026 67.5033 120.263 70.5696 111.676 73.9653C103.442 77.2195 95.5813 81.1088 88.3208 86.2425C81.274 91.2259 74.8328 97.08 69.001 103.463C56.6071 117.027 46.9365 132.952 39.3155 149.687C30.6827 168.644 24.5435 188.642 18.9427 208.694C17.5733 213.599 16.2322 218.514 14.8944 223.431C14.4962 224.899 16.784 225.359 17.1818 223.899C22.8049 203.229 28.4408 182.499 36.3407 162.577C43.5104 144.492 52.5873 127.096 64.7594 111.928C75.9359 98.0041 89.6816 86.0167 106.007 78.7708C114.797 74.868 124.022 72.0229 132.572 67.5659C140.046 63.6703 146.793 58.4346 152.64 52.3307C164.415 40.0416 173.076 23.7654 175.737 6.7675C176.012 5.00114 176.132 3.01746 174.976 1.5252C173.988 0.248208 172.342 -0.145028 170.816 0.0995918C166.341 0.818699 164.686 5.36735 163.819 9.30571C162.792 13.9625 161.453 18.3206 159.123 22.495C156.909 26.4593 154.082 30.0501 150.915 33.2744C137.334 47.1037 118.68 52.168 101.351 59.2974C92.8771 62.7852 84.7804 67.0331 77.3035 72.3855C69.8255 77.7374 62.9721 84.0009 56.9125 90.9511C43.8432 105.942 35.1512 124.015 28.0829 142.536C20.751 161.744 14.8707 181.495 6.67734 200.365C4.69975 204.918 2.56688 209.4 0.24184 213.781C-0.0773939 214.383 0.845185 214.833 1.17652 214.246Z" fill="#E5E8ED"/>
</svg>
