<svg width="103" height="105" viewBox="0 0 103 105" fill="none" xmlns="http://www.w3.org/2000/svg">
<path d="M100.095 90.8219C99.2804 95.3546 97.94 100.765 93.8245 103.392C89.1882 106.354 83.5288 103.452 79.1074 101.462C69.0157 96.9138 59.8051 90.6228 51.5596 83.2049C47.4467 79.5061 43.5754 75.5355 39.9214 71.3736C36.1326 67.0597 32.4874 62.5706 29.2603 57.8084C22.0566 47.181 16.8022 35.3879 10.1598 24.4183C8.81742 22.1998 7.45583 20.019 5.7923 18.0316C4.55578 16.5545 3.23036 15.1397 2.18397 13.5109C1.30909 12.1501 0.675004 10.5695 0.873435 8.9162C1.12039 6.88505 2.45175 5.16705 3.88601 3.81295C7.43191 0.465685 12.7678 -0.137167 17.3815 0.501844C19.5168 0.795599 21.6526 1.33896 23.6046 2.27704C26.0624 3.45922 28.3108 5.0728 30.4853 6.7145C34.7789 9.95545 38.9123 13.2641 43.946 15.2574C48.2917 16.9799 52.8856 17.9575 57.4719 18.7489C66.5446 20.314 76.0644 21.133 84.3792 25.4524C88.7326 27.7136 92.5445 31.007 95.382 35.0492C98.3257 39.2421 100.217 44.0806 101.343 49.0783C103.814 60.0421 102.967 71.6161 101.407 82.6484C101.02 85.3811 100.575 88.1043 100.095 90.8219C99.9445 91.6675 98.6117 91.599 98.7627 90.7443C100.674 79.9498 102.16 68.8484 101.289 57.8649C100.497 47.841 97.4626 37.5194 89.728 30.7182C82.7883 24.6199 73.6259 22.7317 64.8112 21.298C56.0881 19.8801 46.9808 18.8296 39.1083 14.4588C34.2812 11.7797 30.2805 7.86677 25.6115 4.94261C21.6897 2.48753 17.1773 1.29979 12.5539 1.69701C10.2164 1.89715 7.82951 2.5364 5.88557 3.90861C4.29078 5.03391 2.58163 6.81522 2.22777 8.83249C1.9493 10.4285 2.69848 11.9461 3.58541 13.213C4.65622 14.7428 5.94573 16.1032 7.12753 17.5423C8.69727 19.4557 9.98931 21.5701 11.2746 23.6859C12.8743 26.3204 14.393 29.006 15.8749 31.7105C18.8688 37.1711 21.7187 42.7115 24.8157 48.112C30.4806 57.9865 37.3838 66.9732 45.2202 75.1773C52.5885 82.8934 60.8326 89.7768 69.9903 95.2095C74.6841 97.9946 79.6271 100.48 84.7524 102.341C87.1359 103.208 89.7815 103.815 92.2026 102.739C94.3715 101.777 95.8268 99.776 96.7876 97.6492C97.7717 95.4648 98.3407 93.0976 98.7627 90.7443C98.9153 89.8993 100.248 89.9678 100.095 90.8219Z" fill="#677489"/>
</svg>
