<svg width="308" height="285" viewBox="0 0 308 285" fill="none" xmlns="http://www.w3.org/2000/svg">
<path d="M2.35361 24.1258C-0.657192 53.0635 7.76862 83.0417 23.8406 106.997C31.8585 118.947 41.8566 129.382 53.5869 137.616C65.8451 146.22 79.5638 153.237 89.3077 164.989C99.7325 177.56 103.891 193.807 105.312 209.854C106.037 218.041 106.125 226.266 106.039 234.481C105.952 242.868 105.379 251.4 107.004 259.685C108.569 267.662 112.549 274.927 119.862 278.765C125.686 281.823 132.491 282.365 138.941 282.327C147.006 282.276 155.101 281.674 163.145 281.123C172.101 280.507 181.043 279.698 189.956 278.617C222.981 274.611 258.844 267.689 284.693 244.888C305.027 226.952 316.39 198.479 311.85 171.263C306.62 139.903 280.856 118.867 254.341 105.242C227.489 91.4452 197.68 83.0194 174.611 62.5592C152.524 42.9712 139.82 15.3918 128.915 -11.6281C117.654 -39.534 107.876 -68.7241 90.4266 -93.4715C86.2936 -99.3334 81.7488 -104.899 76.6932 -109.969C75.7323 -110.934 77.3211 -112.33 78.2822 -111.367C99.9644 -89.6258 111.987 -60.8606 123.135 -32.6254C134.297 -4.35957 144.884 25.372 164.617 48.8816C174.603 60.7804 186.85 70.0743 200.361 77.4989C214.025 85.0056 228.538 90.7171 242.718 97.1116C270.127 109.469 298.719 126.981 310.219 156.619C320.055 181.97 314.412 211.5 298.587 233.077C278.829 260.014 245.409 271.329 214.078 277.066C196.696 280.25 179.096 282.072 161.478 283.235C153.485 283.764 145.42 284.412 137.407 284.327C131.123 284.261 124.691 283.473 119.021 280.561C104.009 272.854 103.753 254.359 104.005 239.545C104.295 222.495 104.418 204.941 99.4337 188.474C96.9265 180.191 92.989 172.345 87.3973 165.756C82.2554 159.701 75.9433 154.865 69.4174 150.444C62.9861 146.086 56.314 142.087 50.0494 137.477C44.3258 133.265 39.016 128.479 34.1828 123.248C14.7042 102.176 2.49906 73.8679 0.73647 45.0456C0.307555 38.045 0.5498 31.0276 1.45961 24.0737C1.534 23.4993 2.41408 23.5406 2.35361 24.1258Z" fill="#677489"/>
</svg>
