<svg width="60" height="60" viewBox="0 0 60 60" fill="none" xmlns="http://www.w3.org/2000/svg">
<path d="M57.4756 51.8269C57.0047 54.419 56.2582 57.4714 53.964 59.0409C51.4171 60.7829 48.4482 59.4805 45.9284 58.3865C40.0918 55.8526 34.7589 52.2971 29.9916 48.0626C25.2442 43.8484 20.8821 38.9987 17.2684 33.7527C13.0872 27.681 10.0756 20.9057 6.27225 14.6012C5.49654 13.3164 4.70725 12.0562 3.74343 10.9053C3.05174 10.0795 2.3141 9.28483 1.72846 8.37359C0.513891 6.48089 0.824338 4.57557 2.32305 2.94358C4.21064 0.888268 7.06667 0.292417 9.74221 0.494744C12.5918 0.709281 14.9631 1.86133 17.2653 3.52361C19.8168 5.3679 22.1749 7.46379 25.095 8.70603C27.5524 9.75229 30.1745 10.344 32.7908 10.8069C37.9359 11.7165 43.328 12.1424 48.0845 14.5011C59.9967 20.402 59.8387 35.5918 58.2428 47.0227C58.018 48.6291 57.758 50.2301 57.4756 51.8269C57.3259 52.675 55.9937 52.6046 56.1453 51.7512C57.214 45.6893 58.0583 39.4514 57.5742 33.2834C57.135 27.6889 55.4551 21.9171 51.133 18.1247C47.2518 14.7181 42.1049 13.6822 37.1788 12.884C32.3158 12.0942 27.2779 11.4888 22.8634 9.11948C20.1988 7.68849 17.9878 5.57563 15.4714 3.91628C13.2947 2.48065 10.93 1.72017 8.31536 1.81433C6.98202 1.861 5.6109 2.16376 4.46381 2.8778C3.52949 3.4601 2.4747 4.48721 2.27862 5.6359C1.97121 7.46275 4.06509 9.16552 5.07528 10.4151C6.98453 12.772 8.43048 15.5792 9.88896 18.2338C11.5582 21.2714 13.1448 24.3563 14.8629 27.3659C18.0431 32.9372 21.906 38.0033 26.3087 42.6376C30.3778 46.9227 34.9241 50.7522 39.9699 53.803C42.5921 55.3859 45.3401 56.7618 48.1919 57.865C49.4485 58.35 50.8451 58.8155 52.1894 58.421C53.5121 58.0339 54.4184 56.8948 54.9915 55.6814C55.5752 54.4494 55.9019 53.0884 56.1453 51.7512C56.2973 50.9049 57.6307 50.9747 57.4756 51.8269Z" fill="#677489"/>
</svg>
