<svg width="19" height="12" viewBox="0 0 19 12" fill="none" xmlns="http://www.w3.org/2000/svg">
<path d="M18.1797 7.56453C17.7263 4.18846 15.3916 1.49301 12.1503 0.577417C8.57963 -0.431353 4.03965 0.407249 1.70498 3.49973C0.0729833 5.66041 -0.41504 8.97301 2.11429 10.6219C4.37963 12.1006 7.57434 12.0412 10.1597 11.948C11.7677 11.8899 13.3783 11.7576 14.9756 11.5645C16.9676 11.3227 18.4263 9.62258 18.1797 7.56453C18.0757 6.70295 16.7836 7.03785 16.8863 7.89132C16.969 8.58679 16.6103 9.30523 16.0823 9.73062C15.4997 10.2006 14.805 10.237 14.097 10.3086C12.9116 10.4301 11.7249 10.53 10.5343 10.5827C8.26495 10.684 5.73433 10.7542 3.58767 9.87644C2.845 9.5726 2.09831 9.07969 1.79431 8.29239C1.40231 7.26742 1.793 5.98048 2.285 5.06894C3.93166 2.00617 7.90767 1.08651 11.0903 1.71041C14.233 2.32621 16.4556 4.6827 16.8863 7.89132C17.001 8.75289 18.293 8.418 18.1797 7.56453Z" fill="#E5E8ED"/>
</svg>
