<svg width="18" height="18" viewBox="0 0 18 18" fill="none" xmlns="http://www.w3.org/2000/svg">
<path d="M12.6664 15.3333L10.9997 15.3333C10.9113 15.3333 10.8265 15.2982 10.764 15.2357C10.7015 15.1732 10.6664 15.0884 10.6664 15L10.6664 14.3333C10.6664 14.2449 10.7015 14.1601 10.764 14.0976C10.8265 14.0351 10.9113 14 10.9997 14L15.333 14C16.0403 14 16.7186 13.719 17.2187 13.2189C17.7188 12.7188 17.9997 12.0406 17.9997 11.3333L17.9997 3.33333C17.9997 2.62609 17.7188 1.94781 17.2187 1.44771C16.7186 0.947616 16.0403 0.666664 15.333 0.666664L3.33305 0.666664C2.6258 0.666664 1.94753 0.947616 1.44743 1.44771C0.947334 1.94781 0.666382 2.62609 0.666382 3.33333L0.666382 11.3333C0.666382 12.0406 0.947334 12.7188 1.44743 13.2189C1.94753 13.719 2.6258 14 3.33305 14L7.66638 14C7.75479 14 7.83957 14.0351 7.90208 14.0976C7.9646 14.1601 7.99972 14.2449 7.99972 14.3333L7.99972 15C7.99972 15.0884 7.9646 15.1732 7.90208 15.2357C7.83957 15.2982 7.75479 15.3333 7.66638 15.3333L5.99972 15.3333C5.65041 15.3468 5.31906 15.4916 5.07188 15.7388C4.8247 15.986 4.67989 16.3174 4.66638 16.6667C4.66638 17.0203 4.80686 17.3594 5.05691 17.6095C5.30695 17.8595 5.64609 18 5.99972 18L12.6664 18C13.02 18 13.3591 17.8595 13.6092 17.6095C13.8592 17.3594 13.9997 17.0203 13.9997 16.6667C13.9935 16.43 13.923 16.1996 13.7957 16C13.6821 15.7999 13.518 15.6331 13.3199 15.5161C13.1218 15.3992 12.8965 15.3361 12.6664 15.3333ZM14.9997 3.33333C15.0881 3.33333 15.1729 3.36845 15.2354 3.43096C15.2979 3.49347 15.333 3.57826 15.333 3.66666L15.333 11C15.3332 11.0438 15.3247 11.0872 15.308 11.1278C15.2913 11.1683 15.2668 11.2051 15.2358 11.2361C15.2048 11.2671 15.168 11.2916 15.1275 11.3083C15.087 11.325 15.0435 11.3335 14.9997 11.3333L3.66638 11.3333C3.57798 11.3333 3.49319 11.2982 3.43068 11.2357C3.36817 11.1732 3.33305 11.0884 3.33305 11L3.33305 3.66666C3.33305 3.57826 3.36817 3.49347 3.43068 3.43096C3.49319 3.36845 3.57798 3.33333 3.66638 3.33333L14.9997 3.33333Z" fill="#DE6850"/>
</svg>
