<svg width="11" height="4" viewBox="0 0 11 4" fill="none" xmlns="http://www.w3.org/2000/svg">
<path d="M0.870785 3.17736C0.900121 3.21835 0.943509 3.24711 0.992684 3.25818C1.04186 3.26924 1.09339 3.26183 1.13745 3.23736C1.81009 2.86618 2.5652 2.66995 3.33345 2.66669L9.68145 2.66669C9.74505 2.66659 9.80729 2.64829 9.86083 2.61396C9.91436 2.57963 9.95697 2.53071 9.9836 2.47295C10.0102 2.4152 10.0198 2.35103 10.0111 2.28802C10.0025 2.22502 9.976 2.1658 9.93478 2.11736C9.34925 1.43436 8.61909 0.8902 7.79722 0.524321C6.97535 0.158442 6.08238 -0.019988 5.18301 0.00196638C4.28365 0.0239207 3.40044 0.245709 2.59741 0.651253C1.79437 1.0568 1.09163 1.63594 0.540118 2.34669C0.494224 2.4064 0.469902 2.47989 0.471112 2.55519C0.472323 2.63049 0.498995 2.70316 0.546785 2.76136C0.658785 2.89736 0.766785 3.03603 0.870785 3.17736Z" fill="#DE6850"/>
</svg>
