<svg width="14" height="21" viewBox="0 0 14 21" fill="none" xmlns="http://www.w3.org/2000/svg">
<path d="M12.6667 6.3333C12.6664 5.4638 12.9108 4.61178 13.372 3.87464C13.4067 3.81943 13.4244 3.75528 13.423 3.69011C13.4215 3.62493 13.401 3.56161 13.364 3.50797C12.4753 2.22349 11.1997 1.2563 9.72305 0.747309C8.24638 0.238315 6.64576 0.214105 5.15436 0.678204C3.66297 1.1423 2.35871 2.07046 1.43159 3.32748C0.504471 4.5845 0.00291898 6.1047 1.09243e-09 7.66664L1.78891e-09 12.3333C1.81529e-09 12.5101 0.0702379 12.6797 0.195262 12.8047C0.320286 12.9297 0.489855 13 0.666666 13L3.08 13C3.16353 13 3.244 13.0314 3.30549 13.088C3.36697 13.1445 3.40498 13.2221 3.412 13.3053L4 20.3893C4.01407 20.5562 4.09047 20.7118 4.214 20.8249C4.33754 20.9381 4.49914 21.0006 4.66667 21L10 21C10.1675 21.0006 10.3291 20.9381 10.4527 20.8249C10.5762 20.7118 10.6526 20.5562 10.6667 20.3893L11.2573 13.3053C11.2643 13.2225 11.3019 13.1453 11.3629 13.0889C11.4238 13.0324 11.5036 13.0007 11.5867 13L12.3333 13C12.4217 13 12.5065 12.9649 12.569 12.9023C12.6315 12.8398 12.6667 12.755 12.6667 12.6666L12.6667 6.3333Z" fill="#DE6850"/>
</svg>
