<svg width="25" height="25" viewBox="0 0 25 25" fill="none" xmlns="http://www.w3.org/2000/svg">
<path d="M3.3333 21.9998C3.15649 21.9998 2.98692 21.9295 2.8619 21.8045C2.73687 21.6795 2.66664 21.5099 2.66664 21.3331L2.66664 9.99989C2.66664 9.82308 2.73687 9.65351 2.8619 9.52849C2.98692 9.40347 3.15649 9.33323 3.3333 9.33323L21.3331 9.33323C21.5099 9.33323 21.6795 9.40347 21.8045 9.52849C21.9295 9.65351 21.9998 9.82308 21.9998 9.99989L21.9998 12.7599C22.8844 12.6372 23.7817 12.6372 24.6664 12.7599L24.6664 3.99995C24.6664 3.64634 24.5259 3.3072 24.2759 3.05716C24.0258 2.80711 23.6867 2.66664 23.3331 2.66664L19.9998 2.66664C19.9114 2.66664 19.8266 2.63152 19.7641 2.56901C19.7016 2.5065 19.6664 2.42171 19.6664 2.33331L19.6664 0.999989C19.6664 0.734775 19.5611 0.480424 19.3736 0.29289C19.186 0.105356 18.9317 7.95464e-08 18.6665 7.8432e-08C18.4012 7.73177e-08 18.1469 0.105356 17.9594 0.29289C17.7718 0.480424 17.6665 0.734775 17.6665 0.999989L17.6665 5.99993C17.6665 6.13125 17.6406 6.26129 17.5903 6.38261C17.5401 6.50394 17.4664 6.61417 17.3736 6.70703C17.2807 6.79989 17.1705 6.87355 17.0492 6.9238C16.9278 6.97406 16.7978 6.99992 16.6665 6.99992C16.5352 6.99992 16.4051 6.97406 16.2838 6.9238C16.1625 6.87355 16.0522 6.79989 15.9594 6.70703C15.8665 6.61417 15.7929 6.50394 15.7426 6.38261C15.6924 6.26129 15.6665 6.13125 15.6665 5.99993L15.6665 3.3333C15.6665 3.15649 15.5963 2.98692 15.4712 2.8619C15.3462 2.73687 15.1766 2.66664 14.9998 2.66664L9.33323 2.66664C9.24482 2.66664 9.16004 2.63152 9.09753 2.56901C9.03502 2.5065 8.9999 2.42171 8.9999 2.33331L8.9999 0.999989C8.9999 0.734775 8.89454 0.480424 8.70701 0.29289C8.51947 0.105356 8.26512 3.47281e-08 7.99991 3.36137e-08C7.7347 3.24994e-08 7.48034 0.105356 7.29281 0.29289C7.10528 0.480424 6.99992 0.734775 6.99992 0.999989L6.99992 5.99993C6.99992 6.26515 6.89457 6.5195 6.70703 6.70703C6.5195 6.89457 6.26515 6.99992 5.99993 6.99992C5.73472 6.99992 5.48037 6.89457 5.29283 6.70703C5.1053 6.5195 4.99994 6.26515 4.99994 5.99993L4.99994 3.3333C4.99994 3.15649 4.92971 2.98692 4.80468 2.8619C4.67966 2.73687 4.51009 2.66664 4.33328 2.66664L1.33332 2.66664C0.9797 2.66664 0.640566 2.80711 0.39052 3.05716C0.140474 3.3072 5.44201e-10 3.64634 5.96977e-10 3.99995L3.28337e-09 21.9998C3.38893e-09 22.707 0.280948 23.3853 0.78104 23.8853C1.28113 24.3854 1.9594 24.6664 2.66664 24.6664L12.7585 24.6664C12.6359 23.7817 12.6359 22.8844 12.7585 21.9998L3.3333 21.9998Z" fill="#DE6850"/>
</svg>
