<svg width="18" height="9" viewBox="0 0 18 9" fill="none" xmlns="http://www.w3.org/2000/svg">
<path d="M16.3588 1.80064C16.1931 1.74395 16.0178 1.72047 15.843 1.73154C15.6682 1.74261 15.4973 1.78801 15.3401 1.86515C15.1828 1.94229 15.0423 2.04965 14.9266 2.18111C14.8108 2.31257 14.7221 2.46555 14.6655 2.6313C14.3506 3.55854 13.7921 4.38397 13.0484 5.02104C12.3048 5.65811 11.4034 6.08335 10.4388 6.25216C9.47422 6.42096 8.48199 6.32712 7.56616 5.98047C6.65034 5.63383 5.84466 5.04714 5.23361 4.28195L7.74825 1.76864C7.84172 1.67541 7.90541 1.55651 7.93123 1.42703C7.95705 1.29756 7.94385 1.16333 7.89329 1.04137C7.84273 0.919405 7.7571 0.815201 7.64725 0.741964C7.5374 0.668726 7.40828 0.629755 7.27625 0.629991L1.33365 0.629991C1.15684 0.629991 0.987274 0.700227 0.862252 0.82525C0.737229 0.950273 0.666992 1.11984 0.666992 1.29665L0.666992 7.24058C0.66702 7.3725 0.706182 7.50143 0.779521 7.61108C0.852859 7.72073 0.957078 7.80615 1.07899 7.85654C1.20089 7.90693 1.33501 7.92003 1.46436 7.89416C1.59372 7.8683 1.71249 7.80464 1.80565 7.71125L3.34563 6.17126C4.27849 7.25751 5.48207 8.07767 6.83427 8.54854C8.18647 9.01941 9.63915 9.12423 11.0449 8.85236C12.4507 8.58049 13.7596 7.94161 14.8387 7.00054C15.9179 6.05946 16.7289 4.84969 17.1895 3.49396C17.2462 3.32824 17.2696 3.15297 17.2586 2.97816C17.2475 2.80336 17.2021 2.63245 17.125 2.4752C17.0478 2.31795 16.9405 2.17744 16.809 2.0617C16.6775 1.94596 16.5246 1.85725 16.3588 1.80064Z" fill="#DE6850"/>
</svg>
