<svg width="18" height="9" viewBox="0 0 18 9" fill="none" xmlns="http://www.w3.org/2000/svg">
<path d="M16.5892 1.69805C16.4673 1.64766 16.3332 1.63458 16.2038 1.66045C16.0745 1.68632 15.9557 1.74998 15.8626 1.84338L14.2492 3.4567C13.3104 2.38056 12.1048 1.5706 10.7536 1.10826C9.40236 0.64593 7.95325 0.547525 6.55196 0.822946C5.15066 1.09837 3.84659 1.7379 2.77088 2.67724C1.69518 3.61657 0.885776 4.82259 0.424065 6.174C0.309493 6.5087 0.332572 6.8752 0.488225 7.19288C0.643879 7.51057 0.919356 7.7534 1.25405 7.86798C1.58875 7.98255 1.95526 7.95947 2.27294 7.80382C2.59063 7.64816 2.83346 7.37269 2.94804 7.03799C3.26191 6.11436 3.81757 5.29172 4.55719 4.65566C5.29681 4.0196 6.19337 3.59337 7.15358 3.42131C8.11379 3.24925 9.10256 3.33765 10.017 3.67732C10.9315 4.01698 11.7382 4.5955 12.3533 5.35267L9.91996 7.78598C9.82694 7.87929 9.76366 7.99807 9.7381 8.12731C9.71254 8.25656 9.72585 8.39049 9.77635 8.51217C9.82685 8.63386 9.91228 8.73786 10.0218 8.81103C10.1314 8.8842 10.2602 8.92327 10.3919 8.9233L16.3345 8.9233C16.5114 8.9233 16.6809 8.85306 16.806 8.72804C16.931 8.60302 17.0012 8.43345 17.0012 8.25664L17.0012 2.31404C17.0012 2.18212 16.962 2.05318 16.8887 1.94352C16.8153 1.83387 16.7111 1.74844 16.5892 1.69805Z" fill="#DE6850"/>
</svg>
