<svg width="5" height="10" viewBox="0 0 5 10" fill="none" xmlns="http://www.w3.org/2000/svg">
<path d="M3.55505 0.982665L0.355615 0.982665C0.261332 0.982665 0.170911 1.02012 0.104244 1.08679C0.0375757 1.15345 0.00012207 1.24388 0.00012207 1.33816L0.000122072 9.159C0.000122072 9.25328 0.0375757 9.3437 0.104244 9.41037C0.170911 9.47704 0.261332 9.51449 0.355615 9.51449L3.55505 9.51449C3.64993 9.52031 3.74497 9.50591 3.83387 9.47223C3.92276 9.43856 4.00349 9.38639 4.07071 9.31917C4.13793 9.25195 4.1901 9.17122 4.22378 9.08232C4.25745 8.99343 4.27185 8.89839 4.26604 8.80351L4.26604 1.69365C4.27185 1.59877 4.25745 1.50373 4.22378 1.41483C4.1901 1.32594 4.13793 1.24521 4.07071 1.17799C4.00349 1.11077 3.92276 1.0586 3.83387 1.02493C3.74497 0.991253 3.64993 0.976848 3.55505 0.982665Z" fill="#DE6850"/>
</svg>
