<svg width="16" height="12" viewBox="0 0 16 12" fill="none" xmlns="http://www.w3.org/2000/svg">
<path d="M6.08706 11.2253L11.7749 11.2253C13.1969 11.2253 13.4586 11.1528 13.9079 9.80334C14.6189 7.67038 15.3299 4.11545 15.3299 4.11545C15.3299 3.40446 14.6189 2.69348 13.1969 2.69348L6.81511 2.69348C6.75578 2.6934 6.69741 2.67854 6.64527 2.65024C6.59313 2.62194 6.54887 2.58108 6.51649 2.53137L5.05186 0.284658C5.02008 0.236411 4.97706 0.196601 4.9265 0.168647C4.87594 0.140693 4.81934 0.125432 4.76158 0.124173C4.70382 0.122914 4.64662 0.135696 4.59489 0.161421C4.54316 0.187146 4.49844 0.225044 4.46459 0.271861L3.24312 1.98107C3.07107 2.19476 2.85501 2.36888 2.60963 2.49157C2.36425 2.61426 2.09532 2.68264 1.82114 2.69206L0.754666 2.69206C0.707862 2.69206 0.661518 2.7013 0.618295 2.71925C0.575072 2.73721 0.535819 2.76352 0.50279 2.79668C0.469761 2.82984 0.443606 2.8692 0.425824 2.91249C0.408043 2.95579 0.398986 3.00217 0.399173 3.04897L0.399173 8.87906C0.399144 8.94493 0.417494 9.00951 0.452161 9.06553C0.486827 9.12155 0.536435 9.16679 0.595405 9.19616C3.25165 10.5243 4.44753 11.2253 6.08706 11.2253Z" fill="#DE6850"/>
</svg>
