<svg width="11" height="5" viewBox="0 0 11 5" fill="none" xmlns="http://www.w3.org/2000/svg">
<path d="M8.29073 4.27587C8.35697 4.28056 8.42321 4.26667 8.48199 4.23577C8.54077 4.20487 8.58977 4.15819 8.62347 4.10097L10.408 1.07217C10.4717 0.964255 10.5057 0.841443 10.5066 0.716166C10.5075 0.590889 10.4753 0.467594 10.4132 0.358767C10.3512 0.24994 10.2615 0.159443 10.1532 0.0964418C10.0449 0.0334402 9.92188 0.000169987 9.7966 4.03054e-08L0.914963 2.98687e-09C0.789471 2.18872e-05 0.66622 0.0332583 0.557731 0.096333C0.449242 0.159408 0.359381 0.250073 0.297275 0.35912C0.235169 0.468166 0.203033 0.591708 0.204129 0.717195C0.205225 0.842682 0.239515 0.965644 0.303516 1.07359L2.28717 4.10523C2.3198 4.15459 2.36416 4.19509 2.41626 4.22313C2.46837 4.25117 2.52661 4.26587 2.58578 4.26591L8.29073 4.27587Z" fill="#DE6850"/>
</svg>
