<svg width="20" height="18" viewBox="0 0 20 18" fill="none" xmlns="http://www.w3.org/2000/svg">
<path d="M14.9033 0.876614C14.8699 0.841282 14.8297 0.813134 14.7851 0.793896C14.7404 0.774659 14.6924 0.764736 14.6438 0.764736C14.5952 0.764736 14.5471 0.774659 14.5025 0.793896C14.4578 0.813134 14.4176 0.841282 14.3843 0.876614C14.0304 1.18491 13.6144 1.41363 13.1645 1.54733C12.7146 1.68103 12.2412 1.71658 11.7764 1.65159L6.08848 1.65159C5.62281 1.65134 5.1585 1.60128 4.70348 1.50228C4.64059 1.48902 4.57529 1.49299 4.51447 1.51376C4.45365 1.53453 4.39957 1.57134 4.35794 1.6203C1.98014 4.27776 0.583186 7.66879 0.39917 11.23C0.39917 16.2268 5.51827 18 9.90078 18C14.7255 18 19.5958 15.9069 19.5958 11.23C19.5958 6.81903 16.7518 2.8688 14.9033 0.876614ZM9.75858 10.1749C8.42051 9.27335 7.15496 8.42302 7.15496 7.15746C7.12588 6.89783 7.15042 6.635 7.22706 6.38524C7.3037 6.13548 7.43081 5.90412 7.60051 5.70549C7.77022 5.50686 7.9789 5.34519 8.21363 5.2305C8.44836 5.11581 8.70414 5.05053 8.96513 5.03872C9.05326 5.03091 9.13528 4.99037 9.19502 4.9251C9.25476 4.85983 9.2879 4.77456 9.28791 4.68608L9.28791 4.49127C9.28791 4.20842 9.40027 3.93716 9.60028 3.73715C9.80028 3.53715 10.0715 3.42479 10.3544 3.42479C10.6372 3.42479 10.9085 3.53715 11.1085 3.73715C11.3085 3.93716 11.4209 4.20842 11.4209 4.49127L11.4209 4.66901C11.4209 4.76329 11.4583 4.85372 11.525 4.92038C11.5917 4.98705 11.6821 5.0245 11.7764 5.0245L12.4859 5.0245C12.7688 5.0245 13.04 5.13687 13.24 5.33687C13.44 5.53687 13.5524 5.80814 13.5524 6.09098C13.5524 6.37383 13.44 6.64509 13.24 6.8451C13.04 7.0451 12.7688 7.15746 12.4859 7.15746L10.2748 7.15746C10.1994 7.15762 10.126 7.18172 10.0652 7.2263C10.0045 7.27088 9.95942 7.33363 9.93663 7.40548C9.91384 7.47732 9.91448 7.55455 9.93845 7.62601C9.96243 7.69747 10.0085 7.75947 10.07 7.80304C10.3672 8.01491 10.6957 8.22963 10.9488 8.40453C12.2868 9.30606 13.5524 10.1578 13.5524 11.4234C13.5751 11.6883 13.5436 11.9551 13.4598 12.2074C13.376 12.4598 13.2416 12.6924 13.0649 12.8911C12.8882 13.0898 12.6728 13.2504 12.432 13.363C12.1911 13.4757 11.9298 13.5381 11.664 13.5464C11.5973 13.5518 11.535 13.5821 11.4896 13.6314C11.4443 13.6807 11.4192 13.7453 11.4194 13.8123L11.4194 14.0967C11.4194 14.3795 11.3071 14.6508 11.1071 14.8508C10.9071 15.0508 10.6358 15.1632 10.353 15.1632C10.0701 15.1632 9.79886 15.0508 9.59886 14.8508C9.39885 14.6508 9.28649 14.3795 9.28649 14.0967L9.28649 13.9189C9.28649 13.8247 9.24904 13.7342 9.18237 13.6676C9.1157 13.6009 9.02528 13.5634 8.931 13.5634L8.22001 13.5634C7.93716 13.5634 7.6659 13.4511 7.4659 13.2511C7.26589 13.0511 7.15353 12.7798 7.15353 12.497C7.15353 12.2141 7.26589 11.9429 7.4659 11.7429C7.6659 11.5428 7.93716 11.4305 8.22001 11.4305L10.4155 11.4305C10.4901 11.4305 10.5629 11.407 10.6234 11.3634C10.6839 11.3198 10.7292 11.2582 10.7528 11.1874C10.7764 11.1166 10.7771 11.0402 10.7549 10.969C10.7326 10.8978 10.6885 10.8354 10.6288 10.7906C10.3331 10.5617 10.0089 10.3441 9.75716 10.1749L9.75858 10.1749Z" fill="#DE6850"/>
</svg>
