<svg width="14" height="14" viewBox="0 0 14 14" fill="none" xmlns="http://www.w3.org/2000/svg">
<path d="M13.8882 7.00505C13.8882 5.669 13.492 4.36295 12.7498 3.25206C12.0075 2.14117 10.9525 1.27534 9.71811 0.764056C8.48376 0.252771 7.12552 0.118995 5.81514 0.379646C4.50476 0.640297 3.3011 1.28367 2.35636 2.2284C1.41163 3.17313 0.768261 4.37679 0.50761 5.68717C0.246959 6.99755 0.380735 8.3558 0.89202 9.59015C1.4033 10.8245 2.26914 11.8795 3.38002 12.6218C4.49091 13.3641 5.79696 13.7602 7.13301 13.7602C8.92394 13.7581 10.6409 13.0457 11.9073 11.7793C13.1737 10.5129 13.8861 8.79598 13.8882 7.00505ZM3.21499 6.00123C3.2419 5.89998 3.29199 5.80638 3.3613 5.72782C3.43061 5.64926 3.51724 5.5879 3.61435 5.54859C3.71145 5.50927 3.81637 5.49308 3.92081 5.5013C4.02525 5.50951 4.12635 5.5419 4.21612 5.59591C5.68542 6.50611 7.37718 6.99368 9.10553 7.00505C9.52565 7.00425 9.94515 6.97264 10.3606 6.91047C10.4646 6.89495 10.5707 6.9039 10.6706 6.93659C10.7705 6.96929 10.8613 7.02484 10.936 7.09882C11.0106 7.1728 11.067 7.26318 11.1005 7.36276C11.1341 7.46235 11.144 7.56839 11.1294 7.67246C10.9601 8.67378 10.421 9.57505 9.61893 10.1979C8.81684 10.8208 7.81015 11.1198 6.79809 11.0359C5.78603 10.952 4.84235 10.4912 4.15379 9.74478C3.46524 8.99832 3.08199 8.02058 3.07989 7.00505C3.08038 6.66594 3.12581 6.3284 3.21499 6.00123Z" fill="#DE6850"/>
</svg>
