<svg width="15" height="11" viewBox="0 0 15 11" fill="none" xmlns="http://www.w3.org/2000/svg">
<path d="M4.29219 0.111521C3.1999 0.111888 2.11505 0.29125 1.08077 0.642479C0.972306 0.678685 0.874808 0.741832 0.79741 0.826002C0.720012 0.910173 0.665247 1.01261 0.638245 1.12373C0.611243 1.23484 0.612888 1.35099 0.643027 1.46129C0.673165 1.57159 0.73081 1.67244 0.810562 1.75439C3.04066 4.01756 4.29121 7.06701 4.29219 10.2443L4.29219 10.2767C4.29094 10.3608 4.3064 10.4442 4.33768 10.5221C4.36896 10.6001 4.41544 10.6711 4.4744 10.7309C4.53337 10.7908 4.60364 10.8383 4.68114 10.8707C4.75864 10.9032 4.84182 10.9199 4.92583 10.9198L13.7495 10.9198C13.9286 10.9198 14.1005 10.8487 14.2271 10.722C14.3538 10.5953 14.425 10.4235 14.425 10.2443C14.4221 7.55781 13.3537 4.98216 11.454 3.08251C9.55436 1.18286 6.9787 0.114382 4.29219 0.111521Z" fill="#DE6850"/>
</svg>
