<svg width="13" height="14" viewBox="0 0 13 14" fill="none" xmlns="http://www.w3.org/2000/svg">
<path d="M1.63246 4.96487C1.66728 5.12318 1.75853 5.26341 1.88916 5.35938C3.46197 6.46261 5.34408 7.03874 7.26495 7.00494C7.68507 7.00414 8.10457 6.97253 8.52007 6.91037C8.62401 6.89485 8.73013 6.90379 8.83001 6.93649C8.92989 6.96918 9.02076 7.02473 9.0954 7.09871C9.17004 7.17269 9.22638 7.26307 9.25996 7.36266C9.29354 7.46224 9.30341 7.56828 9.28881 7.67236C9.12535 8.61571 8.63558 9.47162 7.90508 10.0905C7.17458 10.7094 6.24982 11.0518 5.29243 11.0581C4.76471 11.0577 4.24229 10.9528 3.75533 10.7494C3.26837 10.546 2.8265 10.2482 2.45524 9.8732C2.37561 9.7931 2.27715 9.73424 2.16889 9.70202C2.06063 9.6698 1.94601 9.66525 1.83554 9.68877C1.72506 9.71229 1.62224 9.76314 1.53649 9.83666C1.45074 9.91018 1.38479 10.004 1.34469 10.1096C1.1872 10.5231 0.998872 10.9241 0.781306 11.3094C0.704128 11.4461 0.677016 11.6055 0.704632 11.7601C0.732247 11.9147 0.812865 12.0549 0.932622 12.1565C1.91663 12.9926 3.11965 13.5291 4.3992 13.7026C5.67875 13.8761 6.98121 13.6792 8.15231 13.1353C9.32341 12.5913 10.3141 11.7231 11.007 10.6335C11.6999 9.54392 12.066 8.27856 12.0619 6.98731C12.0578 5.69606 11.6837 4.43303 10.984 3.34783C10.2842 2.26262 9.28808 1.40071 8.11357 0.864181C6.93905 0.327654 5.63537 0.138992 4.35694 0.320542C3.07851 0.502091 1.8789 1.04625 0.900197 1.88855C0.78044 1.9915 0.700538 2.13316 0.674375 2.2889C0.648212 2.44464 0.677442 2.60463 0.756987 2.74106C1.17652 3.42547 1.47283 4.17814 1.63246 4.96487V4.96487Z" fill="#DE6850"/>
</svg>
